<svg xmlns="http://www.w3.org/2000/svg" height="200pt" version="1.0" width="300pt">
<g style="fill:none;stroke:#000;stroke-width:2px">
<path d="M50 225 350 225"/>
<path d="m50 25 300 0"/>
<path d="m342.5 125c0 -1.38 -1.12 -2.5 -2.5 -2.5 -1.38 -0 -2.5 1.12 -2.5 2.5 0 1.38 1.12 2.5 2.5 2.5 1.38 -0 2.5 -1.12 2.5 -2.5z" style="fill:#000;stroke:none"/>
<path d="m306 25 0 45 -15 0 0 30 15 0 0 50 -15 0 0 30 15 0 0 45"/>
<path d="m305.69 125 34.31 0"/>
<path d="m286 70 0 30" style="stroke-linecap:square"/>
<path d="m286 150 0 30" style="stroke-linecap:square"/>
<path d="m286 85 -35 0 0 80 35 0"/>
<path d="m266 105a0 0 0 1 1 0 0 0 0 0 1 1 0 0z" style="fill:#fff;stroke-linecap:round"/>
<path d="m308.5 225c0 1.38 -1.12 2.5 -2.5 2.5 -1.38 0 -2.5 -1.12 -2.5 -2.5 0 -1.38 1.12 -2.5 2.5 -2.5 1.38 0 2.5 1.12 2.5 2.5z" style="fill:#000;stroke:none"/>
<path d="m308.5 125c0 1.38 -1.12 2.5 -2.5 2.5 -1.38 0 -2.5 -1.12 -2.5 -2.5 0 -1.38 1.12 -2.5 2.5 -2.5 1.38 0 2.5 1.12 2.5 2.5z" style="fill:#000;stroke:none"/>
<path d="m253.5 125c0 1.38 -1.12 2.5 -2.5 2.5 -1.38 0 -2.5 -1.12 -2.5 -2.5 0 -1.38 1.12 -2.5 2.5 -2.5 1.38 0 2.5 1.12 2.5 2.5z" style="fill:#000;stroke:none"/>
<path d="m308.5 25c0 1.38 -1.12 2.5 -2.5 2.5 -1.38 0 -2.5 -1.12 -2.5 -2.5 0 -1.38 1.12 -2.5 2.5 -2.5 1.38 0 2.5 1.12 2.5 2.5z" style="fill:#000;stroke:none"/>
<path d="m286 85c0 1.38 -1.12 2.5 -2.5 2.5 -1.38 0 -2.5 -1.12 -2.5 -2.5 0 -1.38 1.12 -2.5 2.5 -2.5 1.38 0 2.5 1.12 2.5 2.5z" style="fill:#fff;stroke-linecap:round"/>
<path d="m197.5 25c0 -1.38 -1.12 -2.5 -2.5 -2.5 -1.38 -0 -2.5 1.12 -2.5 2.5 0 1.38 1.12 2.5 2.5 2.5 1.38 -0 2.5 -1.12 2.5 -2.5z" style="fill:#000;stroke:none"/>
<path d="m197.5 150c0 -1.38 -1.12 -2.5 -2.5 -2.5 -1.38 -0 -2.5 1.12 -2.5 2.5 0 1.38 1.12 2.5 2.5 2.5 1.38 -0 2.5 -1.12 2.5 -2.5z" style="fill:#000;stroke:none"/>
<path d="m87.5 110c0 -1.38 -1.12 -2.5 -2.5 -2.5 -1.38 -0 -2.5 1.12 -2.5 2.5 0 1.38 1.12 2.5 2.5 2.5 1.38 -0 2.5 -1.12 2.5 -2.5z" style="fill:#000;stroke:none"/>
<path d="m132.5 225c0 -1.38 -1.12 -2.5 -2.5 -2.5 -1.38 -0 -2.5 1.12 -2.5 2.5 0 1.38 1.12 2.5 2.5 2.5 1.38 -0 2.5 -1.12 2.5 -2.5z" style="fill:#000;stroke:none"/>
<path d="m195 225 0 -25 -15 0 0 -30 15 0 0 -20" style="stroke-linecap:square"/>
<path d="m175 200 0 -30" style="stroke-linecap:square"/>
<path d="m195 150 0 -25 -15 0 0 -30 15 0 0 -20" style="stroke-linecap:square"/>
<path d="m175 125 0 -30" style="stroke-linecap:square"/>
<path d="m195 75 -15 0 0 -30 15 0 0 -20" style="stroke-linecap:square"/>
<path d="m175 75 0 -30" style="stroke-linecap:square"/>
<path d="m130 205 0 -5 -15 0 0 -30 15 0 0 -5" style="stroke-linecap:square"/>
<path d="m110 200 0 -30" style="stroke-linecap:square"/>
<path d="m130 205 0 20"/>
<path d="m175 185 -25 0 0 -125"/>
<path d="M175 60 70 60"/>
<path d="M175 110 70 110"/>
<path d="m110 185 -25 0 0 -75"/>
<path d="m152.5 60c0 -1.38 -1.12 -2.5 -2.5 -2.5 -1.38 -0 -2.5 1.12 -2.5 2.5 0 1.38 1.12 2.5 2.5 2.5 1.38 -0 2.5 -1.12 2.5 -2.5z" style="fill:#000;stroke:none"/>
<path d="m197.5 225c0 -1.38 -1.12 -2.5 -2.5 -2.5 -1.38 -0 -2.5 1.12 -2.5 2.5 0 1.38 1.12 2.5 2.5 2.5 1.38 -0 2.5 -1.12 2.5 -2.5z" style="fill:#000;stroke:none"/>
<path d="m195 150 -65 0 0 15"/>
<path d="m72.5 110c0 -1.38 -1.12 -2.5 -2.5 -2.5 -1.38 -0 -2.5 1.12 -2.5 2.5 0 1.38 1.12 2.5 2.5 2.5 1.38 -0 2.5 -1.12 2.5 -2.5z" style="fill:#000;stroke:none"/>
<path d="m72.5 60c0 -1.38 -1.12 -2.5 -2.5 -2.5 -1.38 -0 -2.5 1.12 -2.5 2.5 0 1.38 1.12 2.5 2.5 2.5 1.38 -0 2.5 -1.12 2.5 -2.5z" style="fill:#000;stroke:none"/>
<path d="m174 110c0 -1.38 -1.12 -2.5 -2.5 -2.5 -1.38 -0 -2.5 1.12 -2.5 2.5 0 1.38 1.12 2.5 2.5 2.5 1.38 -0 2.5 -1.12 2.5 -2.5z" style="fill:#fff;stroke-linecap:round"/>
<path d="m174 60c0 -1.38 -1.12 -2.5 -2.5 -2.5 -1.38 -0 -2.5 1.12 -2.5 2.5 0 1.38 1.12 2.5 2.5 2.5 1.38 -0 2.5 -1.12 2.5 -2.5z" style="fill:#fff;stroke-linecap:round"/>
<path d="m195 150 25 0 0 -25 30 0"/>
</g>
<text style="font-family:DejaVu Sans;font-size:22px;fill:#000;stroke:none"><tspan x="5" y="32">Vdd</tspan><tspan x="45" y="67">A</tspan><tspan x="45" y="118">B</tspan><tspan x="348" y="133">Q</tspan><tspan x="5" y="230">Vss</tspan></text>
</svg>