<?xml version="1.0" encoding="UTF-8" standalone="no"?>
<svg
   width="458.9256pt"
   height="345.59998pt"
   viewBox="0 0 458.92561 345.59997"
   version="1.1"
   id="svg1393"
   xmlns:xlink="http://www.w3.org/1999/xlink"
   xmlns="http://www.w3.org/2000/svg"
   xmlns:svg="http://www.w3.org/2000/svg"
   xmlns:rdf="http://www.w3.org/1999/02/22-rdf-syntax-ns#"
   xmlns:cc="http://creativecommons.org/ns#"
   xmlns:dc="http://purl.org/dc/elements/1.1/">
  <metadata
     id="metadata930">
    <rdf:RDF>
      <cc:Work>
        <dc:type
           rdf:resource="http://purl.org/dc/dcmitype/StillImage" />
        <dc:date>2023-06-03T15:58:50.442817</dc:date>
        <dc:format>image/svg+xml</dc:format>
        <dc:creator>
          <cc:Agent>
            <dc:title>Matplotlib v3.6.2, https://matplotlib.org/</dc:title>
          </cc:Agent>
        </dc:creator>
      </cc:Work>
    </rdf:RDF>
  </metadata>
  <defs
     id="defs934">
    <style
       type="text/css"
       id="style932">*{stroke-linejoin: round; stroke-linecap: butt}</style>
  </defs>
  <g
     id="figure_1"
     transform="translate(15.25897)">
    <g
       id="patch_1"
       transform="matrix(0.99593226,0,0,1,-15.25897,0)">
      <path
         d="M 0,345.6 H 460.8 V 0 H 0 Z"
         style="fill:#ffffff"
         id="path936" />
    </g>
    <g
       id="axes_1">
      <g
         id="patch_2">
        <path
           d="M 57.6,307.584 H 414.72 V 41.472 H 57.6 Z"
           style="fill:#ffffff"
           id="path939" />
      </g>
      <g
         id="matplotlib.axis_1">
        <g
           id="xtick_1">
          <g
             id="line2d_1">
            <defs
               id="defs943">
              <path
                 id="me00437baa7"
                 d="M 0,0 V 6"
                 style="stroke:#262626;stroke-width:1.25" />
            </defs>
            <g
               id="g947">
              <use
                 xlink:href="#me00437baa7"
                 x="73.832726"
                 y="307.58401"
                 style="fill:#262626;stroke:#262626;stroke-width:1.25"
                 id="use945" />
            </g>
          </g>
          <g
             id="text_1">
            <!-- 1995 -->
            <g
               style="fill:#262626"
               transform="matrix(0.11,0,0,-0.11,59.835227,325.44228)"
               id="g963">
              <defs
                 id="defs953">
                <path
                   id="DejaVuSans-31"
                   d="M 794,531 H 1825 V 4091 L 703,3866 v 575 l 1116,225 h 631 V 531 H 3481 V 0 H 794 Z"
                   transform="scale(0.015625)" />
                <path
                   id="DejaVuSans-39"
                   d="m 703,97 v 575 q 238,-113 481,-172 244,-59 479,-59 625,0 954,420 330,420 377,1277 -181,-269 -460,-413 -278,-144 -615,-144 -700,0 -1108,423 -408,424 -408,1159 0,718 425,1152 425,435 1131,435 810,0 1236,-621 427,-620 427,-1801 Q 3622,1225 3098,567 2575,-91 1691,-91 1453,-91 1209,-44 966,3 703,97 Z m 1256,1978 q 425,0 673,290 249,291 249,798 0,503 -249,795 -248,292 -673,292 -425,0 -673,-292 -248,-292 -248,-795 0,-507 248,-798 248,-290 673,-290 z"
                   transform="scale(0.015625)" />
                <path
                   id="DejaVuSans-35"
                   d="M 691,4666 H 3169 V 4134 H 1269 V 2991 q 137,47 274,70 138,23 276,23 781,0 1237,-428 457,-428 457,-1159 Q 3513,744 3044,326 2575,-91 1722,-91 1428,-91 1123,-41 819,9 494,109 v 635 q 281,-153 581,-228 300,-75 634,-75 541,0 856,284 316,284 316,772 0,487 -316,771 -315,285 -856,285 -253,0 -505,-56 -251,-56 -513,-175 z"
                   transform="scale(0.015625)" />
              </defs>
              <use
                 xlink:href="#DejaVuSans-31"
                 id="use955" />
              <use
                 xlink:href="#DejaVuSans-39"
                 x="63.623047"
                 id="use957" />
              <use
                 xlink:href="#DejaVuSans-39"
                 x="127.24609"
                 id="use959" />
              <use
                 xlink:href="#DejaVuSans-35"
                 x="190.86914"
                 id="use961" />
            </g>
          </g>
        </g>
        <g
           id="xtick_2">
          <g
             id="line2d_2">
            <g
               id="g969">
              <use
                 xlink:href="#me00437baa7"
                 x="133.95393"
                 y="307.58401"
                 style="fill:#262626;stroke:#262626;stroke-width:1.25"
                 id="use967" />
            </g>
          </g>
          <g
             id="text_2">
            <!-- 2000 -->
            <g
               style="fill:#262626"
               transform="matrix(0.11,0,0,-0.11,119.95644,325.44228)"
               id="g984">
              <defs
                 id="defs974">
                <path
                   id="DejaVuSans-32"
                   d="M 1228,531 H 3431 V 0 H 469 v 531 q 359,372 979,998 621,627 780,809 303,340 423,576 121,236 121,464 0,372 -261,606 -261,235 -680,235 -297,0 -627,-103 -329,-103 -704,-313 v 638 q 381,153 712,231 332,78 607,78 725,0 1156,-363 431,-362 431,-968 0,-288 -108,-546 -107,-257 -392,-607 -78,-91 -497,-524 Q 1991,1309 1228,531 Z"
                   transform="scale(0.015625)" />
                <path
                   id="DejaVuSans-30"
                   d="m 2034,4250 q -487,0 -733,-480 -245,-479 -245,-1442 0,-959 245,-1439 246,-480 733,-480 491,0 736,480 246,480 246,1439 0,963 -246,1442 -245,480 -736,480 z m 0,500 q 785,0 1199,-621 414,-620 414,-1801 0,-1178 -414,-1799 -414,-620 -1199,-620 -784,0 -1198,620 -414,621 -414,1799 0,1181 414,1801 414,621 1198,621 z"
                   transform="scale(0.015625)" />
              </defs>
              <use
                 xlink:href="#DejaVuSans-32"
                 id="use976" />
              <use
                 xlink:href="#DejaVuSans-30"
                 x="63.623047"
                 id="use978" />
              <use
                 xlink:href="#DejaVuSans-30"
                 x="127.24609"
                 id="use980" />
              <use
                 xlink:href="#DejaVuSans-30"
                 x="190.86914"
                 id="use982" />
            </g>
          </g>
        </g>
        <g
           id="xtick_3">
          <g
             id="line2d_3">
            <g
               id="g990">
              <use
                 xlink:href="#me00437baa7"
                 x="194.07515"
                 y="307.58401"
                 style="fill:#262626;stroke:#262626;stroke-width:1.25"
                 id="use988" />
            </g>
          </g>
          <g
             id="text_3">
            <!-- 2005 -->
            <g
               style="fill:#262626"
               transform="matrix(0.11,0,0,-0.11,180.07765,325.44228)"
               id="g1001">
              <use
                 xlink:href="#DejaVuSans-32"
                 id="use993" />
              <use
                 xlink:href="#DejaVuSans-30"
                 x="63.623047"
                 id="use995" />
              <use
                 xlink:href="#DejaVuSans-30"
                 x="127.24609"
                 id="use997" />
              <use
                 xlink:href="#DejaVuSans-35"
                 x="190.86914"
                 id="use999" />
            </g>
          </g>
        </g>
        <g
           id="xtick_4">
          <g
             id="line2d_4">
            <g
               id="g1007">
              <use
                 xlink:href="#me00437baa7"
                 x="254.19637"
                 y="307.58401"
                 style="fill:#262626;stroke:#262626;stroke-width:1.25"
                 id="use1005" />
            </g>
          </g>
          <g
             id="text_4">
            <!-- 2010 -->
            <g
               style="fill:#262626"
               transform="matrix(0.11,0,0,-0.11,240.19886,325.44228)"
               id="g1018">
              <use
                 xlink:href="#DejaVuSans-32"
                 id="use1010" />
              <use
                 xlink:href="#DejaVuSans-30"
                 x="63.623047"
                 id="use1012" />
              <use
                 xlink:href="#DejaVuSans-31"
                 x="127.24609"
                 id="use1014" />
              <use
                 xlink:href="#DejaVuSans-30"
                 x="190.86914"
                 id="use1016" />
            </g>
          </g>
        </g>
        <g
           id="xtick_5">
          <g
             id="line2d_5">
            <g
               id="g1024">
              <use
                 xlink:href="#me00437baa7"
                 x="314.31757"
                 y="307.58401"
                 style="fill:#262626;stroke:#262626;stroke-width:1.25"
                 id="use1022" />
            </g>
          </g>
          <g
             id="text_5">
            <!-- 2015 -->
            <g
               style="fill:#262626"
               transform="matrix(0.11,0,0,-0.11,300.32008,325.44228)"
               id="g1035">
              <use
                 xlink:href="#DejaVuSans-32"
                 id="use1027" />
              <use
                 xlink:href="#DejaVuSans-30"
                 x="63.623047"
                 id="use1029" />
              <use
                 xlink:href="#DejaVuSans-31"
                 x="127.24609"
                 id="use1031" />
              <use
                 xlink:href="#DejaVuSans-35"
                 x="190.86914"
                 id="use1033" />
            </g>
          </g>
        </g>
        <g
           id="xtick_6">
          <g
             id="line2d_6">
            <g
               id="g1041">
              <use
                 xlink:href="#me00437baa7"
                 x="374.43878"
                 y="307.58401"
                 style="fill:#262626;stroke:#262626;stroke-width:1.25"
                 id="use1039" />
            </g>
          </g>
          <g
             id="text_6">
            <!-- 2020 -->
            <g
               style="fill:#262626"
               transform="matrix(0.11,0,0,-0.11,360.44129,325.44228)"
               id="g1052">
              <use
                 xlink:href="#DejaVuSans-32"
                 id="use1044" />
              <use
                 xlink:href="#DejaVuSans-30"
                 x="63.623047"
                 id="use1046" />
              <use
                 xlink:href="#DejaVuSans-32"
                 x="127.24609"
                 id="use1048" />
              <use
                 xlink:href="#DejaVuSans-30"
                 x="190.86914"
                 id="use1050" />
            </g>
          </g>
        </g>
        <g
           id="text_7">
          <!-- Years -->
          <g
             style="fill:#262626"
             transform="matrix(0.12,0,0,-0.12,220.32937,340.84806)"
             id="g1073">
            <defs
               id="defs1061">
              <path
                 id="DejaVuSans-59"
                 d="M -13,4666 H 666 L 1959,2747 3244,4666 h 678 L 2272,2222 V 0 h -634 v 2222 z"
                 transform="scale(0.015625)" />
              <path
                 id="DejaVuSans-65"
                 d="M 3597,1894 V 1613 H 953 q 38,-594 358,-905 320,-311 892,-311 331,0 642,81 311,81 618,244 V 178 Q 3153,47 2828,-22 2503,-91 2169,-91 1331,-91 842,396 353,884 353,1716 q 0,859 464,1363 464,505 1252,505 706,0 1117,-455 411,-454 411,-1235 z m -575,169 q -6,471 -264,752 -258,282 -683,282 -481,0 -770,-272 -289,-272 -333,-766 z"
                 transform="scale(0.015625)" />
              <path
                 id="DejaVuSans-61"
                 d="m 2194,1759 q -697,0 -966,-159 -269,-159 -269,-544 0,-306 202,-486 202,-179 548,-179 479,0 768,339 289,339 289,901 v 128 z m 1147,238 V 0 H 2766 V 531 Q 2569,213 2275,61 1981,-91 1556,-91 q -537,0 -855,302 -317,302 -317,808 0,590 395,890 396,300 1180,300 h 807 v 57 q 0,397 -261,614 -261,217 -733,217 -300,0 -585,-72 -284,-72 -546,-216 v 532 q 315,122 612,182 297,61 578,61 760,0 1135,-394 375,-393 375,-1193 z"
                 transform="scale(0.015625)" />
              <path
                 id="DejaVuSans-72"
                 d="m 2631,2963 q -97,56 -211,82 -114,27 -251,27 -488,0 -749,-317 -261,-317 -261,-911 V 0 H 581 v 3500 h 578 v -544 q 182,319 472,473 291,155 707,155 59,0 131,-8 72,-7 159,-23 z"
                 transform="scale(0.015625)" />
              <path
                 id="DejaVuSans-73"
                 d="m 2834,3397 v -544 q -243,125 -506,187 -262,63 -544,63 -428,0 -642,-131 -214,-131 -214,-394 0,-200 153,-314 153,-114 616,-217 l 197,-44 q 612,-131 870,-370 258,-239 258,-667 0,-488 -386,-773 Q 2250,-91 1575,-91 1294,-91 989,-36 684,19 347,128 v 594 q 319,-166 628,-249 309,-82 613,-82 406,0 624,139 219,139 219,392 0,234 -158,359 -157,125 -692,241 l -200,47 q -534,112 -772,345 -237,233 -237,639 0,494 350,762 350,269 994,269 318,0 599,-47 282,-46 519,-140 z"
                 transform="scale(0.015625)" />
            </defs>
            <use
               xlink:href="#DejaVuSans-59"
               id="use1063" />
            <use
               xlink:href="#DejaVuSans-65"
               x="47.833984"
               id="use1065" />
            <use
               xlink:href="#DejaVuSans-61"
               x="109.35742"
               id="use1067" />
            <use
               xlink:href="#DejaVuSans-72"
               x="170.63672"
               id="use1069" />
            <use
               xlink:href="#DejaVuSans-73"
               x="211.75"
               id="use1071" />
          </g>
        </g>
      </g>
      <g
         id="matplotlib.axis_2">
        <g
           id="ytick_1">
          <g
             id="line2d_7">
            <defs
               id="defs1078">
              <path
                 id="me7b0cd5c51"
                 d="M 0,0 H -6"
                 style="stroke:#262626;stroke-width:1.25" />
            </defs>
            <g
               id="g1082">
              <use
                 xlink:href="#me7b0cd5c51"
                 x="57.599998"
                 y="299.88654"
                 style="fill:#262626;stroke:#262626;stroke-width:1.25"
                 id="use1080" />
            </g>
          </g>
          <g
             id="text_8">
            <!-- 0 -->
            <g
               style="fill:#262626"
               transform="matrix(0.11,0,0,-0.11,41.10125,304.06569)"
               id="g1087">
              <use
                 xlink:href="#DejaVuSans-30"
                 id="use1085" />
            </g>
          </g>
        </g>
        <g
           id="ytick_2">
          <g
             id="line2d_8">
            <g
               id="g1093">
              <use
                 xlink:href="#me7b0cd5c51"
                 x="57.599998"
                 y="265.52292"
                 style="fill:#262626;stroke:#262626;stroke-width:1.25"
                 id="use1091" />
            </g>
          </g>
          <g
             id="text_9">
            <!-- 2000 -->
            <g
               style="fill:#262626"
               transform="matrix(0.11,0,0,-0.11,20.105,269.70205)"
               id="g1104">
              <use
                 xlink:href="#DejaVuSans-32"
                 id="use1096" />
              <use
                 xlink:href="#DejaVuSans-30"
                 x="63.623047"
                 id="use1098" />
              <use
                 xlink:href="#DejaVuSans-30"
                 x="127.24609"
                 id="use1100" />
              <use
                 xlink:href="#DejaVuSans-30"
                 x="190.86914"
                 id="use1102" />
            </g>
          </g>
        </g>
        <g
           id="ytick_3">
          <g
             id="line2d_9">
            <g
               id="g1110">
              <use
                 xlink:href="#me7b0cd5c51"
                 x="57.599998"
                 y="231.15927"
                 style="fill:#262626;stroke:#262626;stroke-width:1.25"
                 id="use1108" />
            </g>
          </g>
          <g
             id="text_10">
            <!-- 4000 -->
            <g
               style="fill:#262626"
               transform="matrix(0.11,0,0,-0.11,20.105,235.33841)"
               id="g1124">
              <defs
                 id="defs1114">
                <path
                   id="DejaVuSans-34"
                   d="M 2419,4116 825,1625 h 1594 z m -166,550 h 794 V 1625 h 666 V 1100 H 3047 V 0 H 2419 V 1100 H 313 v 609 z"
                   transform="scale(0.015625)" />
              </defs>
              <use
                 xlink:href="#DejaVuSans-34"
                 id="use1116" />
              <use
                 xlink:href="#DejaVuSans-30"
                 x="63.623047"
                 id="use1118" />
              <use
                 xlink:href="#DejaVuSans-30"
                 x="127.24609"
                 id="use1120" />
              <use
                 xlink:href="#DejaVuSans-30"
                 x="190.86914"
                 id="use1122" />
            </g>
          </g>
        </g>
        <g
           id="ytick_4">
          <g
             id="line2d_10">
            <g
               id="g1130">
              <use
                 xlink:href="#me7b0cd5c51"
                 x="57.599998"
                 y="196.79564"
                 style="fill:#262626;stroke:#262626;stroke-width:1.25"
                 id="use1128" />
            </g>
          </g>
          <g
             id="text_11">
            <!-- 6000 -->
            <g
               style="fill:#262626"
               transform="matrix(0.11,0,0,-0.11,20.105,200.97478)"
               id="g1144">
              <defs
                 id="defs1134">
                <path
                   id="DejaVuSans-36"
                   d="m 2113,2584 q -425,0 -674,-291 -248,-290 -248,-796 0,-503 248,-796 249,-292 674,-292 425,0 673,292 248,293 248,796 0,506 -248,796 -248,291 -673,291 z m 1253,1979 v -575 q -238,112 -480,171 -242,60 -480,60 -625,0 -955,-422 -329,-422 -376,-1275 184,272 462,417 279,145 613,145 703,0 1111,-427 408,-426 408,-1160 0,-719 -425,-1154 -425,-434 -1131,-434 -810,0 -1238,620 -428,621 -428,1799 0,1106 525,1764 525,658 1409,658 238,0 480,-47 242,-47 505,-140 z"
                   transform="scale(0.015625)" />
              </defs>
              <use
                 xlink:href="#DejaVuSans-36"
                 id="use1136" />
              <use
                 xlink:href="#DejaVuSans-30"
                 x="63.623047"
                 id="use1138" />
              <use
                 xlink:href="#DejaVuSans-30"
                 x="127.24609"
                 id="use1140" />
              <use
                 xlink:href="#DejaVuSans-30"
                 x="190.86914"
                 id="use1142" />
            </g>
          </g>
        </g>
        <g
           id="ytick_5">
          <g
             id="line2d_11">
            <g
               id="g1150">
              <use
                 xlink:href="#me7b0cd5c51"
                 x="57.599998"
                 y="162.43201"
                 style="fill:#262626;stroke:#262626;stroke-width:1.25"
                 id="use1148" />
            </g>
          </g>
          <g
             id="text_12">
            <!-- 8000 -->
            <g
               style="fill:#262626"
               transform="matrix(0.11,0,0,-0.11,20.105,166.61114)"
               id="g1164">
              <defs
                 id="defs1154">
                <path
                   id="DejaVuSans-38"
                   d="m 2034,2216 q -450,0 -708,-241 -257,-241 -257,-662 0,-422 257,-663 258,-241 708,-241 450,0 709,242 260,243 260,662 0,421 -258,662 -257,241 -711,241 z m -631,268 q -406,100 -633,378 -226,279 -226,679 0,559 398,884 399,325 1092,325 697,0 1094,-325 397,-325 397,-884 0,-400 -227,-679 -226,-278 -629,-378 456,-106 710,-416 255,-309 255,-755 Q 3634,634 3220,271 2806,-91 2034,-91 1263,-91 848,271 434,634 434,1313 q 0,446 256,755 257,310 713,416 z m -231,997 q 0,-362 226,-565 227,-203 636,-203 407,0 636,203 230,203 230,565 0,363 -230,566 -229,203 -636,203 -409,0 -636,-203 -226,-203 -226,-566 z"
                   transform="scale(0.015625)" />
              </defs>
              <use
                 xlink:href="#DejaVuSans-38"
                 id="use1156" />
              <use
                 xlink:href="#DejaVuSans-30"
                 x="63.623047"
                 id="use1158" />
              <use
                 xlink:href="#DejaVuSans-30"
                 x="127.24609"
                 id="use1160" />
              <use
                 xlink:href="#DejaVuSans-30"
                 x="190.86914"
                 id="use1162" />
            </g>
          </g>
        </g>
        <g
           id="ytick_6">
          <g
             id="line2d_12">
            <g
               id="g1170">
              <use
                 xlink:href="#me7b0cd5c51"
                 x="57.599998"
                 y="128.06836"
                 style="fill:#262626;stroke:#262626;stroke-width:1.25"
                 id="use1168" />
            </g>
          </g>
          <g
             id="text_13">
            <!-- 10000 -->
            <g
               style="fill:#262626"
               transform="matrix(0.11,0,0,-0.11,13.10625,132.2475)"
               id="g1183">
              <use
                 xlink:href="#DejaVuSans-31"
                 id="use1173" />
              <use
                 xlink:href="#DejaVuSans-30"
                 x="63.623047"
                 id="use1175" />
              <use
                 xlink:href="#DejaVuSans-30"
                 x="127.24609"
                 id="use1177" />
              <use
                 xlink:href="#DejaVuSans-30"
                 x="190.86914"
                 id="use1179" />
              <use
                 xlink:href="#DejaVuSans-30"
                 x="254.49219"
                 id="use1181" />
            </g>
          </g>
        </g>
        <g
           id="ytick_7">
          <g
             id="line2d_13">
            <g
               id="g1189">
              <use
                 xlink:href="#me7b0cd5c51"
                 x="57.599998"
                 y="93.704727"
                 style="fill:#262626;stroke:#262626;stroke-width:1.25"
                 id="use1187" />
            </g>
          </g>
          <g
             id="text_14">
            <!-- 12000 -->
            <g
               style="fill:#262626"
               transform="matrix(0.11,0,0,-0.11,13.10625,97.883868)"
               id="g1202">
              <use
                 xlink:href="#DejaVuSans-31"
                 id="use1192" />
              <use
                 xlink:href="#DejaVuSans-32"
                 x="63.623047"
                 id="use1194" />
              <use
                 xlink:href="#DejaVuSans-30"
                 x="127.24609"
                 id="use1196" />
              <use
                 xlink:href="#DejaVuSans-30"
                 x="190.86914"
                 id="use1198" />
              <use
                 xlink:href="#DejaVuSans-30"
                 x="254.49219"
                 id="use1200" />
            </g>
          </g>
        </g>
        <g
           id="ytick_8">
          <g
             id="line2d_14">
            <g
               id="g1208">
              <use
                 xlink:href="#me7b0cd5c51"
                 x="57.599998"
                 y="59.341091"
                 style="fill:#262626;stroke:#262626;stroke-width:1.25"
                 id="use1206" />
            </g>
          </g>
          <g
             id="text_15">
            <!-- 14000 -->
            <g
               style="fill:#262626"
               transform="matrix(0.11,0,0,-0.11,13.10625,63.520232)"
               id="g1221">
              <use
                 xlink:href="#DejaVuSans-31"
                 id="use1211" />
              <use
                 xlink:href="#DejaVuSans-34"
                 x="63.623047"
                 id="use1213" />
              <use
                 xlink:href="#DejaVuSans-30"
                 x="127.24609"
                 id="use1215" />
              <use
                 xlink:href="#DejaVuSans-30"
                 x="190.86914"
                 id="use1217" />
              <use
                 xlink:href="#DejaVuSans-30"
                 x="254.49219"
                 id="use1219" />
            </g>
          </g>
        </g>
        <g
           id="text_16">
          <!-- BTB -->
          <g
             style="fill:#262626"
             transform="matrix(0,-0.12,-0.12,0,6.610625,186.42581)"
             id="g1235">
            <defs
               id="defs1227">
              <path
                 id="DejaVuSans-42"
                 d="M 1259,2228 V 519 h 1013 q 509,0 754,211 246,211 246,645 0,438 -246,645 -245,208 -754,208 z m 0,1919 V 2741 h 935 q 462,0 688,173 227,174 227,530 0,353 -227,528 -226,175 -688,175 z m -631,519 h 1613 q 722,0 1112,-300 391,-300 391,-853 0,-429 -200,-682 -200,-253 -588,-315 466,-100 724,-418 258,-317 258,-792 0,-625 -425,-966 Q 3088,0 2303,0 H 628 Z"
                 transform="scale(0.015625)" />
              <path
                 id="DejaVuSans-54"
                 d="M -19,4666 H 3928 V 4134 H 2272 V 0 H 1638 V 4134 H -19 Z"
                 transform="scale(0.015625)" />
            </defs>
            <use
               xlink:href="#DejaVuSans-42"
               id="use1229" />
            <use
               xlink:href="#DejaVuSans-54"
               x="68.603516"
               id="use1231" />
            <use
               xlink:href="#DejaVuSans-42"
               x="129.6875"
               id="use1233" />
          </g>
        </g>
      </g>
      <g
         id="PolyCollection_1" />
      <g
         id="PolyCollection_2" />
      <g
         id="line2d_15">
        <path
           d="m 73.832727,291.08945 60.121213,-61.57963 72.14545,35.18836 48.09697,-35.18836 h 36.07273 12.02424 12.02425 24.04848 l 24.04848,-17.59418 24.04849,-123.159276"
           clip-path="url(#pcdd5c9d379)"
           style="fill:none;stroke:#4c72b0;stroke-width:1.5;stroke-linecap:round"
           id="path1241" />
        <defs
           id="defs1244">
          <path
             id="mb10b125974"
             d="M 0,3 C 0.795609,3 1.55874,2.683901 2.12132,2.12132 2.683901,1.55874 3,0.795609 3,0 3,-0.795609 2.683901,-1.55874 2.12132,-2.12132 1.55874,-2.683901 0.795609,-3 0,-3 -0.795609,-3 -1.55874,-2.683901 -2.12132,-2.12132 -2.683901,-1.55874 -3,-0.795609 -3,0 -3,0.795609 -2.683901,1.55874 -2.12132,2.12132 -1.55874,2.683901 -0.795609,3 0,3 Z"
             style="stroke:#ffffff;stroke-width:0.75" />
        </defs>
        <g
           clip-path="url(#pcdd5c9d379)"
           id="g1266">
          <use
             xlink:href="#mb10b125974"
             x="73.832726"
             y="291.08945"
             style="fill:#4c72b0;stroke:#ffffff;stroke-width:0.75"
             id="use1246" />
          <use
             xlink:href="#mb10b125974"
             x="133.95393"
             y="229.50981"
             style="fill:#4c72b0;stroke:#ffffff;stroke-width:0.75"
             id="use1248" />
          <use
             xlink:href="#mb10b125974"
             x="206.0994"
             y="264.69818"
             style="fill:#4c72b0;stroke:#ffffff;stroke-width:0.75"
             id="use1250" />
          <use
             xlink:href="#mb10b125974"
             x="254.19637"
             y="229.50981"
             style="fill:#4c72b0;stroke:#ffffff;stroke-width:0.75"
             id="use1252" />
          <use
             xlink:href="#mb10b125974"
             x="290.2691"
             y="229.50981"
             style="fill:#4c72b0;stroke:#ffffff;stroke-width:0.75"
             id="use1254" />
          <use
             xlink:href="#mb10b125974"
             x="302.29333"
             y="229.50981"
             style="fill:#4c72b0;stroke:#ffffff;stroke-width:0.75"
             id="use1256" />
          <use
             xlink:href="#mb10b125974"
             x="314.31757"
             y="229.50981"
             style="fill:#4c72b0;stroke:#ffffff;stroke-width:0.75"
             id="use1258" />
          <use
             xlink:href="#mb10b125974"
             x="338.36606"
             y="229.50981"
             style="fill:#4c72b0;stroke:#ffffff;stroke-width:0.75"
             id="use1260" />
          <use
             xlink:href="#mb10b125974"
             x="362.41455"
             y="211.91563"
             style="fill:#4c72b0;stroke:#ffffff;stroke-width:0.75"
             id="use1262" />
          <use
             xlink:href="#mb10b125974"
             x="386.46304"
             y="88.756363"
             style="fill:#4c72b0;stroke:#ffffff;stroke-width:0.75"
             id="use1264" />
        </g>
      </g>
      <g
         id="line2d_16">
        <path
           d="m 85.85697,295.488 36.07273,-30.78982 h 48.09697 48.09697 l 48.09697,-52.78254 72.14545,70.37672 L 362.41454,53.568 374.43879,71.162182 398.48727,53.568"
           clip-path="url(#pcdd5c9d379)"
           style="fill:none;stroke:#dd8452;stroke-width:1.5;stroke-dasharray:6, 2.25;stroke-dashoffset:0"
           id="path1269" />
        <defs
           id="defs1272">
          <path
             id="mb8b8720afb"
             d="M 0,3 C 0.795609,3 1.55874,2.683901 2.12132,2.12132 2.683901,1.55874 3,0.795609 3,0 3,-0.795609 2.683901,-1.55874 2.12132,-2.12132 1.55874,-2.683901 0.795609,-3 0,-3 -0.795609,-3 -1.55874,-2.683901 -2.12132,-2.12132 -2.683901,-1.55874 -3,-0.795609 -3,0 -3,0.795609 -2.683901,1.55874 -2.12132,2.12132 -1.55874,2.683901 -0.795609,3 0,3 Z"
             style="stroke:#ffffff;stroke-width:0.75" />
        </defs>
        <g
           clip-path="url(#pcdd5c9d379)"
           id="g1292">
          <use
             xlink:href="#mb8b8720afb"
             x="85.856972"
             y="295.48801"
             style="fill:#dd8452;stroke:#ffffff;stroke-width:0.75"
             id="use1274" />
          <use
             xlink:href="#mb8b8720afb"
             x="121.9297"
             y="264.69818"
             style="fill:#dd8452;stroke:#ffffff;stroke-width:0.75"
             id="use1276" />
          <use
             xlink:href="#mb8b8720afb"
             x="170.02667"
             y="264.69818"
             style="fill:#dd8452;stroke:#ffffff;stroke-width:0.75"
             id="use1278" />
          <use
             xlink:href="#mb8b8720afb"
             x="218.12364"
             y="264.69818"
             style="fill:#dd8452;stroke:#ffffff;stroke-width:0.75"
             id="use1280" />
          <use
             xlink:href="#mb8b8720afb"
             x="266.22061"
             y="211.91563"
             style="fill:#dd8452;stroke:#ffffff;stroke-width:0.75"
             id="use1282" />
          <use
             xlink:href="#mb8b8720afb"
             x="338.36606"
             y="282.29236"
             style="fill:#dd8452;stroke:#ffffff;stroke-width:0.75"
             id="use1284" />
          <use
             xlink:href="#mb8b8720afb"
             x="362.41455"
             y="53.568001"
             style="fill:#dd8452;stroke:#ffffff;stroke-width:0.75"
             id="use1286" />
          <use
             xlink:href="#mb8b8720afb"
             x="374.43878"
             y="71.162186"
             style="fill:#dd8452;stroke:#ffffff;stroke-width:0.75"
             id="use1288" />
          <use
             xlink:href="#mb8b8720afb"
             x="398.48727"
             y="53.568001"
             style="fill:#dd8452;stroke:#ffffff;stroke-width:0.75"
             id="use1290" />
        </g>
      </g>
      <g
         id="line2d_17" />
      <g
         id="line2d_18" />
      <g
         id="patch_3">
        <path
           d="M 57.6,307.584 V 41.472"
           style="fill:none;stroke:#262626;stroke-width:1.25;stroke-linecap:square;stroke-linejoin:miter"
           id="path1297" />
      </g>
      <g
         id="patch_4">
        <path
           d="M 414.72,307.584 V 41.472"
           style="fill:none;stroke:#262626;stroke-width:1.25;stroke-linecap:square;stroke-linejoin:miter"
           id="path1300" />
      </g>
      <g
         id="patch_5">
        <path
           d="M 57.6,307.584 H 414.72"
           style="fill:none;stroke:#262626;stroke-width:1.25;stroke-linecap:square;stroke-linejoin:miter"
           id="path1303" />
      </g>
      <g
         id="patch_6">
        <path
           d="M 57.6,41.472 H 414.72"
           style="fill:none;stroke:#262626;stroke-width:1.25;stroke-linecap:square;stroke-linejoin:miter"
           id="path1306" />
      </g>
      <g
         id="legend_1">
        <g
           id="patch_7">
          <path
             d="m 65.3,99.677625 h 60.68563 q 2.19999,0 2.19999,-2.2 V 49.172 q 0,-2.2 -2.19999,-2.2 H 65.3 q -2.2,0 -2.2,2.2 v 48.305625 q 0,2.2 2.2,2.2 z"
             style="opacity:0.8;fill:#ffffff;stroke:#cccccc;stroke-linejoin:miter"
             id="path1309" />
        </g>
        <g
           id="text_17">
          <!-- Vendor -->
          <g
             style="fill:#262626"
             transform="matrix(0.12,0,0,-0.12,74.562187,60.490125)"
             id="g1330">
            <defs
               id="defs1316">
              <path
                 id="DejaVuSans-56"
                 d="M 1831,0 50,4666 H 709 L 2188,738 3669,4666 h 656 L 2547,0 Z"
                 transform="scale(0.015625)" />
              <path
                 id="DejaVuSans-6e"
                 d="M 3513,2113 V 0 h -575 v 2094 q 0,497 -194,743 -194,247 -581,247 -466,0 -735,-297 -269,-296 -269,-809 V 0 H 581 v 3500 h 578 v -544 q 207,316 486,472 280,156 646,156 603,0 912,-373 310,-373 310,-1098 z"
                 transform="scale(0.015625)" />
              <path
                 id="DejaVuSans-64"
                 d="m 2906,2969 v 1894 h 575 V 0 H 2906 V 525 Q 2725,213 2448,61 2172,-91 1784,-91 1150,-91 751,415 353,922 353,1747 q 0,825 398,1331 399,506 1033,506 388,0 664,-152 277,-151 458,-463 z M 947,1747 q 0,-634 261,-995 261,-361 717,-361 456,0 718,361 263,361 263,995 0,634 -263,995 -262,361 -718,361 -456,0 -717,-361 -261,-361 -261,-995 z"
                 transform="scale(0.015625)" />
              <path
                 id="DejaVuSans-6f"
                 d="m 1959,3097 q -462,0 -731,-361 -269,-361 -269,-989 0,-628 267,-989 268,-361 733,-361 460,0 728,362 269,363 269,988 0,622 -269,986 -268,364 -728,364 z m 0,487 q 750,0 1178,-488 429,-487 429,-1349 Q 3566,888 3137,398 2709,-91 1959,-91 1206,-91 779,398 353,888 353,1747 q 0,862 426,1349 427,488 1180,488 z"
                 transform="scale(0.015625)" />
            </defs>
            <use
               xlink:href="#DejaVuSans-56"
               id="use1318" />
            <use
               xlink:href="#DejaVuSans-65"
               x="60.658203"
               id="use1320" />
            <use
               xlink:href="#DejaVuSans-6e"
               x="122.18164"
               id="use1322" />
            <use
               xlink:href="#DejaVuSans-64"
               x="185.56055"
               id="use1324" />
            <use
               xlink:href="#DejaVuSans-6f"
               x="249.03711"
               id="use1326" />
            <use
               xlink:href="#DejaVuSans-72"
               x="310.21875"
               id="use1328" />
          </g>
        </g>
        <g
           id="line2d_19">
          <path
             d="m 67.5,72.994031 h 11 11"
             style="fill:none;stroke:#4c72b0;stroke-width:1.5;stroke-linecap:round"
             id="path1333" />
          <defs
             id="defs1336">
            <path
               id="mfdd9fa42fd"
               d="M 0,3 C 0.795609,3 1.55874,2.683901 2.12132,2.12132 2.683901,1.55874 3,0.795609 3,0 3,-0.795609 2.683901,-1.55874 2.12132,-2.12132 1.55874,-2.683901 0.795609,-3 0,-3 -0.795609,-3 -1.55874,-2.683901 -2.12132,-2.12132 -2.683901,-1.55874 -3,-0.795609 -3,0 -3,0.795609 -2.683901,1.55874 -2.12132,2.12132 -1.55874,2.683901 -0.795609,3 0,3 Z"
               style="stroke:#4c72b0" />
          </defs>
          <g
             id="g1340">
            <use
               xlink:href="#mfdd9fa42fd"
               x="78.5"
               y="72.994034"
               style="fill:#4c72b0;stroke:#4c72b0"
               id="use1338" />
          </g>
        </g>
        <g
           id="text_18">
          <!-- Intel -->
          <g
             style="fill:#262626"
             transform="matrix(0.11,0,0,-0.11,98.3,76.844031)"
             id="g1358">
            <defs
               id="defs1346">
              <path
                 id="DejaVuSans-49"
                 d="m 628,4666 h 631 V 0 H 628 Z"
                 transform="scale(0.015625)" />
              <path
                 id="DejaVuSans-74"
                 d="M 1172,4494 V 3500 H 2356 V 3053 H 1172 V 1153 q 0,-428 117,-550 117,-122 477,-122 h 590 V 0 H 1766 Q 1100,0 847,248 594,497 594,1153 V 3053 H 172 v 447 h 422 v 994 z"
                 transform="scale(0.015625)" />
              <path
                 id="DejaVuSans-6c"
                 d="m 603,4863 h 575 V 0 H 603 Z"
                 transform="scale(0.015625)" />
            </defs>
            <use
               xlink:href="#DejaVuSans-49"
               id="use1348" />
            <use
               xlink:href="#DejaVuSans-6e"
               x="29.492188"
               id="use1350" />
            <use
               xlink:href="#DejaVuSans-74"
               x="92.871094"
               id="use1352" />
            <use
               xlink:href="#DejaVuSans-65"
               x="132.08008"
               id="use1354" />
            <use
               xlink:href="#DejaVuSans-6c"
               x="193.60352"
               id="use1356" />
          </g>
        </g>
        <g
           id="line2d_20">
          <path
             d="m 67.5,89.139969 h 11 11"
             style="fill:none;stroke:#dd8452;stroke-width:1.5;stroke-dasharray:6, 2.25;stroke-dashoffset:0"
             id="path1361" />
          <defs
             id="defs1364">
            <path
               id="mf651e449b4"
               d="M 0,3 C 0.795609,3 1.55874,2.683901 2.12132,2.12132 2.683901,1.55874 3,0.795609 3,0 3,-0.795609 2.683901,-1.55874 2.12132,-2.12132 1.55874,-2.683901 0.795609,-3 0,-3 -0.795609,-3 -1.55874,-2.683901 -2.12132,-2.12132 -2.683901,-1.55874 -3,-0.795609 -3,0 -3,0.795609 -2.683901,1.55874 -2.12132,2.12132 -1.55874,2.683901 -0.795609,3 0,3 Z"
               style="stroke:#dd8452" />
          </defs>
          <g
             id="g1368">
            <use
               xlink:href="#mf651e449b4"
               x="78.5"
               y="89.139969"
               style="fill:#dd8452;stroke:#dd8452"
               id="use1366" />
          </g>
        </g>
        <g
           id="text_19">
          <!-- AMD -->
          <g
             style="fill:#262626"
             transform="matrix(0.11,0,0,-0.11,98.3,92.989969)"
             id="g1382">
            <defs
               id="defs1374">
              <path
                 id="DejaVuSans-41"
                 d="M 2188,4044 1331,1722 h 1716 z m -357,622 h 716 L 4325,0 H 3669 L 3244,1197 H 1141 L 716,0 H 50 Z"
                 transform="scale(0.015625)" />
              <path
                 id="DejaVuSans-4d"
                 d="m 628,4666 h 941 L 2759,1491 3956,4666 h 941 V 0 H 4281 V 4097 L 3078,897 H 2444 L 1241,4097 V 0 H 628 Z"
                 transform="scale(0.015625)" />
              <path
                 id="DejaVuSans-44"
                 d="M 1259,4147 V 519 h 763 q 966,0 1414,437 448,438 448,1382 0,937 -448,1373 -448,436 -1414,436 z m -631,519 h 1297 q 1356,0 1990,-564 635,-564 635,-1764 Q 4550,1131 3912,565 3275,0 1925,0 H 628 Z"
                 transform="scale(0.015625)" />
            </defs>
            <use
               xlink:href="#DejaVuSans-41"
               id="use1376" />
            <use
               xlink:href="#DejaVuSans-4d"
               x="68.408203"
               id="use1378" />
            <use
               xlink:href="#DejaVuSans-44"
               x="154.6875"
               id="use1380" />
          </g>
        </g>
      </g>
    </g>
  </g>
  <defs
     id="defs1391">
    <clipPath
       id="pcdd5c9d379">
      <rect
         x="57.599998"
         y="41.472"
         width="357.12"
         height="266.112"
         id="rect1388" />
    </clipPath>
  </defs>
</svg>
